<svg xmlns="http://www.w3.org/2000/svg" fill="none" viewBox="0 0 121 60">
  <path fill="#000" d="M87.37 53.1c.1-2.28.98-3.62 2.24-3.62 1.26 0 1.87 1.1 1.9 3.42l-4.14.2Zm7.06.83c.11-2.9-1.21-5.39-4.64-5.39a5.58 5.58 0 0 0-5.44 5.7c0 3.3 2.09 5.33 5.35 5.33 1.5 0 3.2-.78 4.6-1.95l-.25-.52c-1.34.5-2.25.71-3.31.71-2.3 0-3.38-1.4-3.4-3.88h7.08ZM76.5 50.07l1.41-.55v-.64h-6.14v.68l1.4.55 4.01 9.34h1.7l3.92-9.13 1.53-.76v-.68H79.8v.64l1.32.71-1.1 3.27-1.05 2.7h-.13l-2.35-6.13Zm-9.24.87v7.1l-1.51.5v.66h5.91v-.65l-1.41-.5V48.7l-.39-.23-4.04.92v.59l1.44.95Zm-.44-6.35c0 1.05.8 1.83 1.86 1.83 1.14 0 1.96-.94 1.96-1.96 0-1.03-.78-1.86-1.87-1.86a2 2 0 0 0-1.94 2M64.7 58.47l-.02-.71c-.48.04-.96.06-1.33.06-.75 0-1.18-.06-1.6-.33-.46-.32-.59-.82-.59-1.79v-5.34h3.47v-1.53h-3.47v-3.2h-.85l-1.69 2.58-2.21 1.53v.62h1.76v6.42c0 1.85.9 2.71 2.71 2.71 1.35 0 2.97-.5 3.81-1.03m-12.71-1.24c-.62.4-1.24.6-1.7.6-1.04 0-1.64-.58-1.64-1.63 0-1.14.9-1.98 3.34-2.08v3.11Zm2.83-5.52c0-2.24-1.17-3.17-3.65-3.17-2.5 0-4.91 1.08-4.91 2.65 0 .75.62 1.4 1.44 1.4.87 0 1.37-.58 1.37-1.3 0-.5-.23-.9-.64-1.24.3-.12.7-.2 1.16-.2 1.72 0 2.4.57 2.4 2.28v1.25c-4.11.3-6.13 1.62-6.13 3.56 0 1.57 1.14 2.47 2.79 2.47 1.2 0 2.19-.58 3.22-1.53l.27.04c.18 1.07.78 1.5 1.82 1.5.9 0 1.9-.27 2.56-.52l-.04-.6c-1.33-.02-1.67-.49-1.67-1.27v-5.32Zm-14.5-.78v7.1l-1.5.5v.67h5.91v-.66l-1.41-.5V48.7l-.4-.23-4.03.92v.59l1.43.95Zm-.43-6.35c0 1.05.8 1.83 1.85 1.83 1.15 0 1.97-.94 1.97-1.96 0-1.03-.78-1.85-1.87-1.85a2 2 0 0 0-1.94 1.98m-2.14 13.89-.02-.71c-.49.04-.96.07-1.33.07-.75 0-1.19-.07-1.6-.34-.46-.32-.6-.82-.6-1.79v-5.34h3.48v-1.53H34.2v-3.2h-.85l-1.69 2.58-2.21 1.53v.62h1.75v6.42c0 1.85.92 2.71 2.72 2.71 1.34 0 2.97-.5 3.81-1.03M24.8 50.93v7.1l-1.5.5v.66h5.9v-.66l-1.41-.5v-9.34l-.39-.22-4.04.9v.6l1.44.96Zm-.44-6.35c0 1.04.8 1.82 1.86 1.82 1.14 0 1.96-.94 1.96-1.96s-.78-1.85-1.87-1.85a2 2 0 0 0-1.95 1.98Zm-3.6 7.07c0-1.93-1.05-3.13-2.92-3.13-1.26 0-2.45.62-3.84 1.9l-.27-.04.16-1.64-.43-.27-3.91.9v.6l1.44.96v7.1l-1.47.5v.66h5.67v-.66l-1.21-.5v-6.9a3.98 3.98 0 0 1 2.05-.64c1.26 0 1.74.82 1.74 2.17v5.37l-1.24.5v.66h5.67v-.66l-1.44-.5v-6.37ZM5.8 57.93V45.89l2.17-.5v-.75H.19v.76l2.19.5v12.03l-2.2.5v.75h7.8v-.75l-2.17-.5ZM115.37 39.84c0 1.1-1.5 2.03-3.39 2.03-2.35 0-3.33-.82-3.33-2.01 0-.62.2-1.12.5-1.5l3.68.03c1.76.03 2.54.43 2.54 1.44m-2.09-9.09c0 1.8-.65 2.74-1.69 2.74-1.16 0-1.87-.57-1.87-2.65s.73-2.64 1.76-2.64c1.17 0 1.8.87 1.8 2.55Zm2.75.16c0-.73-.2-1.23-.49-1.7l.05-.2 1.89.37h.46v-1.99h-1.3l-1.77.98a5.3 5.3 0 0 0-3.28-.98c-2.6 0-4.61 1.33-4.61 3.45 0 1.3.84 2.35 2.05 2.95v.13c-1.34 1.05-1.99 1.87-1.99 2.63 0 .64.42 1.21 1.33 1.5l.03.23c-1.5.57-2.22 1.35-2.22 2.2 0 1.32 1.57 2.32 5 2.32 3.75 0 6.19-1.9 6.19-4.13 0-1.71-1.23-2.63-3.61-2.68l-2.8-.04c-1.1-.02-1.51-.3-1.51-.87 0-.3.2-.71.43-1 .41.13.89.2 1.66.2 2.77 0 4.48-1.44 4.48-3.39m-10.3-1.73c0-1.1-.78-1.8-1.86-1.8-1.34 0-2.28.94-3.22 2.48l-.27-.06.26-2.2-.44-.26-3.9.91v.6l1.44.95v7.1l-1.47.5v.66h6.07v-.66l-1.62-.5v-6.03a3.16 3.16 0 0 1 1.8-1.3c.12.78.66 1.44 1.56 1.44.94 0 1.64-.78 1.64-1.83m-17.54 2.78c.1-2.28.98-3.63 2.24-3.63 1.26 0 1.87 1.1 1.9 3.43l-4.14.2Zm7.05.82c.12-2.9-1.2-5.38-4.63-5.38a5.58 5.58 0 0 0-5.44 5.7c0 3.3 2.08 5.32 5.34 5.32 1.51 0 3.2-.77 4.61-1.93l-.25-.53c-1.34.5-2.26.71-3.32.71-2.3 0-3.38-1.4-3.4-3.88h7.09Zm-14.7.53c0 2.9-1.07 4.06-2.28 4.06-.89 0-1.53-.36-2.1-1.1v-6.62c.49-.18 1.01-.33 1.58-.33 1.78 0 2.8 1.27 2.8 4m3.16-.71c0-3.23-1.95-5.21-4.09-5.21a4.5 4.5 0 0 0-3.17 1.4l-.27-.05v-7.35l-.43-.25-4.15 1.07v.6l1.6.95v13.93c1.37.43 3.17.72 4.5.72a5.77 5.77 0 0 0 6.03-5.82m-12.17-3.43c0-1.1-.77-1.8-1.85-1.8-1.34 0-2.28.94-3.22 2.49l-.27-.07.25-2.2-.43-.26-3.9.91v.6l1.43.95v7.1l-1.46.5v.66h6.07v-.66l-1.62-.5v-6.03a3.16 3.16 0 0 1 1.8-1.3c.12.78.66 1.44 1.56 1.44.93 0 1.64-.78 1.64-1.83m-17.54 2.78c.09-2.28.98-3.62 2.24-3.62 1.26 0 1.87 1.1 1.9 3.42l-4.14.2Zm7.05.82c.12-2.9-1.2-5.38-4.63-5.38a5.58 5.58 0 0 0-5.44 5.7c0 3.3 2.08 5.32 5.34 5.32 1.5 0 3.2-.77 4.61-1.93l-.25-.53c-1.35.5-2.26.71-3.32.71-2.3 0-3.38-1.4-3.4-3.88h7.09Zm-15.52-1 3.16-2.81 1.4-.55v-.68h-4.83v.56l1.26.78-2.78 3.13h-.87V21.34l-.43-.25-4.14 1.07v.6l1.57.95v13.13l-1.46.5V38H44v-.66l-1.15-.5v-3.47h.8l2.64 3.61-.84.43v.6h5.11v-.67l-1.1-.48-3.95-5.14.01.02Zm-8.2-1.95c0-1.34-1.4-2.44-3.67-2.44-3.4 0-5.9 2.55-5.9 5.75a5.1 5.1 0 0 0 5.3 5.28c1.57 0 3-.6 4.3-1.9l-.23-.55a6.68 6.68 0 0 1-2.65.62c-2.08 0-3.63-1.33-3.63-3.86 0-2.76 1.49-4.22 3.17-4.3.16 0 .27.03.42.05a3 3 0 0 0-.26 1.2c0 1.03.6 1.8 1.63 1.8.89 0 1.53-.72 1.53-1.65Zm-11.9 6.29v-8.52l-.43-.27-4 .91v.55l1.44.94v6.07c-.78.42-1.28.62-2.06.62-1.23 0-1.73-.78-1.73-2.19v-6.62l-.42-.27-4 .91v.55l1.42.94v5.52c0 1.85 1 3.16 2.92 3.16 1.33 0 2.45-.62 3.84-1.9l.27.04-.16 1.64.43.26 3.93-.91v-.57l-1.47-.85.02-.01ZM13.25 32.8l-.52-.1-1.7 2.48c-.75 1.1-1.32 1.57-2.5 1.57l-4.34.04 9.06-12.76-.1-.57H1.24L.8 28.13l.57.13 1.46-1.82c.98-1.28 1.56-1.7 2.81-1.7l3.5-.04L0 37.5l.1.56H12.8l.46-5.2-.02-.04ZM52.06 9.39c0-1.95-1.05-3.13-2.93-3.13-1.26 0-2.44.62-3.84 1.9l-.27-.05.16-1.64-.43-.27-3.9.91v.6l1.43.95v7.1l-1.46.5v.66h5.67v-.66l-1.21-.5V8.87a3.97 3.97 0 0 1 2.05-.64c1.25 0 1.74.82 1.74 2.17v5.37l-1.24.5v.66h5.67v-.66l-1.44-.5V9.4Zm-16.77 5.57c-.62.39-1.23.6-1.7.6-1.04 0-1.63-.57-1.63-1.63 0-1.14.89-1.99 3.33-2.08v3.11Zm2.83-5.52c0-2.24-1.16-3.17-3.65-3.17s-4.91 1.07-4.91 2.64c0 .76.61 1.4 1.43 1.4.88 0 1.37-.57 1.37-1.3 0-.5-.22-.9-.64-1.24.3-.1.71-.2 1.17-.2 1.72 0 2.4.57 2.4 2.28v1.26c-4.12.3-6.13 1.63-6.13 3.56 0 1.58 1.14 2.47 2.78 2.47 1.21 0 2.2-.56 3.22-1.53l.27.04c.19 1.08.78 1.5 1.83 1.5.89 0 1.9-.26 2.55-.52l-.04-.59c-1.33-.02-1.66-.5-1.66-1.27V9.45l.01-.01Zm-14.45.95v5.37l-1.23.5v.66h5.68v-.66l-1.46-.5V9.4c0-1.87-1.01-3.13-2.93-3.13-1.41 0-2.65.75-3.7 1.69l-.25-.04V.25L19.35 0l-4.14 1.07v.6l1.58.95v13.13l-1.47.5v.65h5.69v-.65l-1.24-.5v-6.9a4 4 0 0 1 2.13-.64c1.27 0 1.75.85 1.75 2.17m-9.81 2.03-.62-.09-2.7 3.45c-.55.19-.91.26-1.5.26-2.84 0-4.96-2.25-4.96-6.58 0-4.34 1.7-6.3 4-6.3 1.84 0 3.15 1.23 4.65 4.44l.85-.04-.27-5.6h-.66l-.78.78a9.53 9.53 0 0 0-3.56-.7C3.68 2.02.32 5.42.32 9.78c0 4.77 3.36 7.47 8.04 7.47 2.08 0 3.56-.36 5.04-1.03l.46-3.82h-.02Z"/>
</svg>
